<svg xmlns="http://www.w3.org/2000/svg" width="12" height="12" viewBox="0 0 12 12" shape-rendering="crispEdges"><path fill="currentColor" d="M4 0h1v1H4zm0 1h1v1H4zm1 0h1v1H5zM4 2h1v1H4zm1 0h1v1H5zm1 0h1v1H6zm1 0h1v1H7zM3 3h1v1H3zm1 0h1v1H4zm1 0h1v1H5zm1 0h1v1H6zm1 0h1v1H7zm1 0h1v1H8zM3 4h1v1H3zm1 0h1v1H4zm1 0h1v1H5zm1 0h1v1H6zM3 5h1v1H3zm1 0h1v1H4zm4 1h1v1H8zm1 0h1v1H9zM0 7h1v1H0zm1 0h1v1H1zm1 0h1v1H2zm1 0h1v1H3zm1 0h1v1H4zm3 0h1v1H7zm1 0h1v1H8zm1 0h1v1H9zm1 0h1v1h-1zM0 8h1v1H0zm1 0h1v1H1zm1 0h1v1H2zm1 0h1v1H3zm1 0h1v1H4zm2 0h1v1H6zm1 0h1v1H7zm1 0h1v1H8zm1 0h1v1H9zm1 0h1v1h-1zm1 0h1v1h-1zM0 9h1v1H0zm1 0h1v1H1zm1 0h1v1H2zm1 0h1v1H3zm1 0h1v1H4zm2 0h1v1H6zm1 0h1v1H7zm1 0h1v1H8zm1 0h1v1H9zm1 0h1v1h-1zm1 0h1v1h-1zM0 10h1v1H0zm1 0h1v1H1zm1 0h1v1H2zm1 0h1v1H3zm1 0h1v1H4zm3 0h1v1H7zm1 0h1v1H8zm1 0h1v1H9zm1 0h1v1h-1zM0 11h1v1H0zm1 0h1v1H1zm1 0h1v1H2zm1 0h1v1H3zm1 0h1v1H4zm4 0h1v1H8zm1 0h1v1H9z"/></svg>