<?xml version="1.0" encoding="UTF-8"?><svg id="debug" xmlns="http://www.w3.org/2000/svg" viewBox="0 0 1024 1024"><defs><style>.cls-1{fill:currentColor;}</style></defs><path class="cls-1" d="m710.108,504.073l155.33,60.706c15.383,6.012,22.98,23.356,16.967,38.74l-33.313,85.233c-6.012,15.383-23.357,22.979-38.74,16.967l-155.335-60.714c-21.441-8.38-43.914,9.592-40.451,32.351l25.088,164.881c2.484,16.328-8.738,31.579-25.066,34.063l-90.469,13.765c-16.328,2.484-31.579-8.738-34.063-25.066l-25.088-164.881c-3.463-22.759-30.264-33.234-48.243-18.856l-130.247,104.167c-12.898,10.316-31.717,8.222-42.033-4.677l-57.156-71.468c-10.316-12.899-8.221-31.718,4.677-42.033l130.245-104.157c17.979-14.378,13.651-42.827-7.791-51.208l-155.333-60.713c-15.383-6.012-22.979-23.356-16.966-38.739l33.313-85.234c6.012-15.383,23.357-22.979,38.74-16.967l155.334,60.714c21.441,8.38,43.914-9.592,40.451-32.351l-25.088-164.881c-2.484-16.328,8.738-31.579,25.066-34.063l90.469-13.765c16.328-2.484,31.579,8.738,34.063,25.066l25.088,164.881c3.463,22.759,30.264,33.234,48.243,18.856l130.247-104.167c12.898-10.316,31.717-8.222,42.033,4.677l57.157,71.468c10.315,12.898,8.222,31.717-4.677,42.032l-130.246,104.166c-17.979,14.379-13.649,42.828,7.792,51.208Z"/></svg>