<?xml version="1.0" encoding="UTF-8"?><svg id="me" xmlns="http://www.w3.org/2000/svg" viewBox="0 0 1024 1024"><defs><style>.cls-1{fill:currentColor;}</style></defs><path class="cls-1" d="m536.196,299.284c-177.784,0-321.907,144.123-321.907,321.907s144.123,321.907,321.907,321.907,321.907-144.123,321.907-321.907-144.123-321.907-321.907-321.907Zm-220.655,321.907c0-38.433,31.156-69.589,69.589-69.589s69.589,31.156,69.589,69.589-31.156,69.589-69.589,69.589-69.589-31.156-69.589-69.589Zm346.874,147.526c-7.847,55.436-54.081,99.327-112.081,102.24-58,2.913-108.399-36.126-121.761-90.496-2.861-11.641,5.442-23.048,17.414-23.649l196.732-9.88c11.972-.601,21.376,9.917,19.696,21.785Zm26.214-92.309c-38.433,0-69.589-31.156-69.589-69.589s31.156-69.589,69.589-69.589,69.589,31.156,69.589,69.589-31.156,69.589-69.589,69.589Z"/><path class="cls-1" d="m249.418,354.795c13.878-12.72-58.025-100.14-80.04-64.261-22.014,35.88,67.07,76.147,80.04,64.261Z"/><path class="cls-1" d="m248.116,159.226c30.403-14.207,71.951,117.737,55.301,130.819-16.65,13.082-118.927-101.088-55.301-130.819Z"/><path class="cls-1" d="m393.744,80.907c44.659.475,31.766,166.969,2.778,166.931-28.987-.038-92.858-167.889-2.778-166.931Z"/></svg>