<?xml version="1.0" encoding="UTF-8"?><svg id="people" xmlns="http://www.w3.org/2000/svg" viewBox="0 0 1024 1024"><defs><style>.cls-1{fill:currentColor;}.cls-2{fill:#5c3600;}</style></defs><path class="cls-2" d="m718.976,323.844c-79.222,0-148.784,41.33-188.322,103.599,12.822,9.402,24.966,19.798,36.352,31.184,20.293,20.292,37.479,42.969,51.373,67.677h0c7.882-11.088,20.822-18.328,35.462-18.328,24.02,0,43.492,19.472,43.492,43.492s-19.472,43.492-43.492,43.492c-2.437,0-4.824-.21-7.151-.595,7.747,27.43,11.659,55.813,11.659,84.782,0,26.966-3.407,53.421-10.124,79.076,22.231,7.435,46.02,11.471,70.752,11.471,123.118,0,222.925-99.807,222.925-222.925s-99.807-222.925-222.925-222.925Zm41.695,380.494c-32.515,4.565-62.864-14.878-73.13-44.822-2.198-6.411,1.902-13.253,8.614-14.196l110.288-15.483c6.711-.942,12.537,4.507,12.19,11.275-1.624,31.613-25.447,58.661-57.962,63.226Zm83.773-119.331c-24.721,0-44.761-20.04-44.761-44.761s20.04-44.761,44.761-44.761,44.761,20.04,44.761,44.761-20.04,44.761-44.761,44.761Z"/><path class="cls-2" d="m353.956,161.542c-114.775,0-207.819,93.044-207.819,207.819,0,21.946,3.412,43.093,9.717,62.951,21.192-16.406,44.353-29.979,69.227-40.5,3.467-1.466,6.959-2.844,10.464-4.18-13.536-7.74-22.665-22.308-22.665-39.017,0-24.812,20.114-44.926,44.926-44.926s44.926,20.114,44.926,44.926c0,8.263-2.241,15.998-6.132,22.649,0,0-.002,0-.003,0,16.385-2.633,33.036-3.98,49.89-3.98,18.161,0,36.09,1.545,53.7,4.601-5.974-7.628-9.545-17.228-9.545-27.668,0-24.812,20.114-44.926,44.926-44.926s44.926,20.114,44.926,44.926c0,18.796-11.548,34.887-27.932,41.59,5.149,1.865,10.261,3.861,15.33,6.005,7.483,3.165,14.809,6.608,21.975,10.319l.265-.418c17.895-28.183,40.966-52.893,67.709-72.728-18.795-95.448-102.927-167.444-203.886-167.444Z"/><path class="cls-1" d="m422.726,450.537l-127.008,6.378c-7.729.388-13.089,7.752-11.242,15.267,8.626,35.101,41.163,60.304,78.607,58.423,37.444-1.88,67.292-30.216,72.358-66.005,1.085-7.662-4.986-14.452-12.715-14.064Z"/><path class="cls-2" d="m346.486,415.285c-145.727,0-263.861,118.135-263.861,263.861s118.135,263.861,263.861,263.861,263.861-118.135,263.861-263.861-118.135-263.861-263.861-263.861Zm-180.867,263.861c0-31.503,25.538-57.041,57.041-57.041s57.041,25.538,57.041,57.041-25.538,57.041-57.041,57.041-57.041-25.538-57.041-57.041Zm284.327,120.925c-6.432,45.44-44.329,81.417-91.871,83.804-47.542,2.388-88.852-29.611-99.805-74.178-2.345-9.542,4.461-18.892,14.274-19.385l161.258-8.099c9.813-.493,17.521,8.128,16.144,17.857Zm21.487-75.664c-31.503,0-57.041-25.538-57.041-57.041s25.538-57.041,57.041-57.041,57.041,25.538,57.041,57.041-25.538,57.041-57.041,57.041Z"/><path class="cls-2" d="m801.919,297.106c-16.575-14.231,63.535-118.329,90.417-77.542,26.883,40.787-74.928,90.841-90.417,77.542Z"/><path class="cls-2" d="m768.601,100.488c-31.461-11.679-62.105,123.215-44.444,134.895,17.662,11.68,110.283-110.453,44.444-134.895Z"/><path class="cls-2" d="m585.622,67.5c-42.731,12.986,16.356,169.175,44.169,161.005,27.812-8.17,42.024-187.199-44.169-161.005Z"/></svg>