<svg xmlns="http://www.w3.org/2000/svg" width="8" height="12" viewBox="0 0 8 12" shape-rendering="crispEdges"><path fill="currentColor" d="M5 0h1v1H5zM6 0h1v1H6zM4 1h1v1H4zM5 1h1v1H5zM6 1h1v1H6zM7 1h1v1H7zM3 2h1v1H3zM4 2h1v1H4zM5 2h1v1H5zM6 2h1v1H6zM2 3h1v1H2zM3 3h1v1H3zM4 3h1v1H4zM5 3h1v1H5zM1 4h1v1H1zM2 4h1v1H2zM3 4h1v1H3zM4 4h1v1H4zM0 5h1v1H0zM1 5h1v1H1zM2 5h1v1H2zM3 5h1v1H3zM0 6h1v1H0zM1 6h1v1H1zM2 6h1v1H2zM3 6h1v1H3zM1 7h1v1H1zM2 7h1v1H2zM3 7h1v1H3zM4 7h1v1H4zM2 8h1v1H2zM3 8h1v1H3zM4 8h1v1H4zM5 8h1v1H5zM3 9h1v1H3zM4 9h1v1H4zM5 9h1v1H5zM6 9h1v1H6zM4 10h1v1H4zM5 10h1v1H5zM6 10h1v1H6zM7 10h1v1H7zM5 11h1v1H5zM6 11h1v1H6z"/></svg>