<?xml version="1.0" encoding="UTF-8"?>
<!-- Created with Inkscape (http://www.inkscape.org/) -->
<svg width="1024" height="1024" version="1.1" viewBox="0 0 270.93 270.93" xmlns="http://www.w3.org/2000/svg">
 <g display="none">
  <rect x="3.3333e-6" y="1.6667e-6" width="270.93" height="270.93" fill="#fdf3d8" stroke-linecap="square" stroke-width="1.2" style="paint-order:markers fill stroke"/>
 </g>
 <path d="m141.36 0.12816a135.47 135.47 0 0 0-116.56 57.213 135.47 135.47 0 0 0 32.543 188.79 135.47 135.47 0 0 0 188.79-32.543 135.47 135.47 0 0 0-32.543-188.79 135.47 135.47 0 0 0-72.235-24.67zm-73.624 90.183a33.867 33.867 0 0 1 33.867 33.867 33.867 33.867 0 0 1-33.867 33.867 33.867 33.867 0 0 1-33.867-33.867 33.867 33.867 0 0 1 33.867-33.867zm125 22.587a33.867 33.867 0 0 1 30.316 20.541 33.867 33.867 0 0 1-17.823 44.455 33.867 33.867 0 0 1-44.455-17.823 33.867 33.867 0 0 1 17.823-44.455 33.867 33.867 0 0 1 14.139-2.7182zm-39.42 74.661c1.0886-2e-3 2.1769 0.19805 3.2294 0.64285l1.5965 0.67455c7.3735 3.1162 10.941 11.848 5.8256 17.968-6.176 7.3883-14.438 12.846-23.752 15.597-4.3781 1.2928-11.799 2.1716-16.358 1.9375-9.6277-0.4944-18.87-3.8253-26.567-9.4899-6.5159-4.7954-5.0684-14.261 1.4655-19.083l1.223-0.90262c3.6773-2.7141 8.83-1.7598 12.59 0.80064 2.5569 1.7413 5.4208 2.9808 8.4405 3.6532 4.4401 0.98863 12.042 0.0879 16.128-1.9107 2.7788-1.359 5.274-3.233 7.3532-5.5232 2.2932-2.5259 5.5592-4.3566 8.825-4.3636z" fill="currentColor" stroke-linecap="square" stroke-width="0" style="paint-order:markers fill stroke"/>
</svg>
